<?xml version="1.0"?>
<!-- Generated by SVGo -->
<svg width="324.802mm" height="115.252mm"
     viewBox="0.000 0.000 324.802 115.252"
     xmlns="http://www.w3.org/2000/svg" 
     xmlns:xlink="http://www.w3.org/1999/xlink">
<polygon points="316.802,5.001 317.037,5.010 317.271,5.037 317.502,5.083 317.729,5.147 317.950,5.229 318.163,5.327 318.369,5.443 318.565,5.573 318.750,5.719 318.923,5.879 319.083,6.052 319.229,6.237 319.359,6.433 319.475,6.639 319.573,6.852 319.655,7.073 319.719,7.300 319.765,7.531 319.792,7.765 319.802,8.001 319.802,107.251 319.792,107.487 319.765,107.721 319.719,107.952 319.655,108.179 319.573,108.400 319.475,108.613 319.359,108.819 319.229,109.015 319.083,109.200 318.923,109.373 318.750,109.533 318.565,109.679 318.369,109.809 318.163,109.925 317.950,110.023 317.729,110.105 317.502,110.169 317.271,110.215 317.037,110.242 316.802,110.252 8.001,110.251 7.765,110.242 7.531,110.215 7.300,110.169 7.073,110.105 6.852,110.023 6.639,109.925 6.433,109.809 6.237,109.679 6.052,109.533 5.879,109.373 5.719,109.200 5.573,109.015 5.443,108.819 5.327,108.613 5.229,108.400 5.147,108.179 5.083,107.952 5.037,107.721 5.010,107.487 5.000,107.251 5.001,8.001 5.010,7.765 5.037,7.531 5.083,7.300 5.147,7.073 5.229,6.852 5.327,6.639 5.443,6.433 5.573,6.237 5.719,6.052 5.879,5.879 6.052,5.719 6.237,5.573 6.433,5.443 6.639,5.327 6.852,5.229 7.073,5.147 7.300,5.083 7.531,5.037 7.765,5.010 8.001,5.000" style="fill:none;stroke-width:0.050000mm;stroke:black"/>
<polygon points="133.969,88.726 133.969,93.426 94.344,93.426 94.344,90.196 87.594,90.196 87.594,93.426 86.769,93.426 86.769,96.226 87.594,96.226 87.594,102.495 89.319,102.495 89.319,103.696 92.619,103.696 92.619,102.495 94.344,102.495 94.344,98.025 133.969,98.025 133.969,102.726 147.969,102.726 147.969,98.025 187.594,98.025 187.594,102.495 189.319,102.495 189.319,103.696 192.619,103.696 192.619,102.495 194.344,102.495 194.344,96.226 195.169,96.226 195.169,93.426 194.344,93.426 194.344,90.196 187.594,90.196 187.594,93.426 147.969,93.426 147.969,88.726" style="fill:none;stroke-width:0.050000mm;stroke:black"/>
<polygon points="14.907,88.726 14.907,102.726 28.907,102.726 28.907,88.726" style="fill:none;stroke-width:0.050000mm;stroke:black"/>
<polygon points="38.719,88.726 38.719,102.726 52.719,102.726 52.719,88.726" style="fill:none;stroke-width:0.050000mm;stroke:black"/>
<polygon points="62.532,88.726 62.532,102.726 76.532,102.726 76.532,88.726" style="fill:none;stroke-width:0.050000mm;stroke:black"/>
<polygon points="203.026,88.726 203.026,102.726 217.026,102.726 217.026,88.726" style="fill:none;stroke-width:0.050000mm;stroke:black"/>
<polygon points="222.076,88.726 222.076,102.726 236.076,102.726 236.076,88.726" style="fill:none;stroke-width:0.050000mm;stroke:black"/>
<polygon points="241.126,88.726 241.126,102.726 255.126,102.726 255.126,88.726" style="fill:none;stroke-width:0.050000mm;stroke:black"/>
<polygon points="260.176,88.726 260.176,102.726 274.176,102.726 274.176,88.726" style="fill:none;stroke-width:0.050000mm;stroke:black"/>
<polygon points="279.226,88.726 279.226,102.726 293.226,102.726 293.226,88.726" style="fill:none;stroke-width:0.050000mm;stroke:black"/>
<polygon points="298.276,88.726 298.276,102.726 312.276,102.726 312.276,88.726" style="fill:none;stroke-width:0.050000mm;stroke:black"/>
<polygon points="24.432,69.676 24.432,74.376 22.907,74.376 22.907,71.146 16.156,71.146 16.156,74.376 15.332,74.376 15.332,77.176 16.156,77.176 16.156,83.446 17.882,83.446 17.882,84.646 21.182,84.646 21.182,83.446 22.907,83.446 22.907,78.976 24.432,78.976 24.432,83.676 38.432,83.676 38.432,78.976 39.957,78.976 39.957,83.446 41.682,83.446 41.682,84.646 44.982,84.646 44.982,83.446 46.707,83.446 46.707,77.176 47.532,77.176 47.532,74.376 46.707,74.376 46.707,71.146 39.957,71.146 39.957,74.376 38.432,74.376 38.432,69.676" style="fill:none;stroke-width:0.050000mm;stroke:black"/>
<polygon points="55.388,69.676 55.388,83.676 69.388,83.676 69.388,69.676" style="fill:none;stroke-width:0.050000mm;stroke:black"/>
<polygon points="74.438,69.676 74.438,83.676 88.438,83.676 88.438,69.676" style="fill:none;stroke-width:0.050000mm;stroke:black"/>
<polygon points="93.488,69.676 93.488,83.676 107.488,83.676 107.488,69.676" style="fill:none;stroke-width:0.050000mm;stroke:black"/>
<polygon points="112.538,69.676 112.538,83.676 126.538,83.676 126.538,69.676" style="fill:none;stroke-width:0.050000mm;stroke:black"/>
<polygon points="131.588,69.676 131.588,83.676 145.588,83.676 145.588,69.676" style="fill:none;stroke-width:0.050000mm;stroke:black"/>
<polygon points="150.638,69.676 150.638,83.676 164.638,83.676 164.638,69.676" style="fill:none;stroke-width:0.050000mm;stroke:black"/>
<polygon points="169.688,69.676 169.688,83.676 183.688,83.676 183.688,69.676" style="fill:none;stroke-width:0.050000mm;stroke:black"/>
<polygon points="188.738,69.676 188.738,83.676 202.738,83.676 202.738,69.676" style="fill:none;stroke-width:0.050000mm;stroke:black"/>
<polygon points="207.788,69.676 207.788,83.676 221.788,83.676 221.788,69.676" style="fill:none;stroke-width:0.050000mm;stroke:black"/>
<polygon points="226.838,69.676 226.838,83.676 240.838,83.676 240.838,69.676" style="fill:none;stroke-width:0.050000mm;stroke:black"/>
<polygon points="253.032,69.676 253.032,83.676 267.032,83.676 267.032,69.676" style="fill:none;stroke-width:0.050000mm;stroke:black"/>
<polygon points="279.226,69.676 279.226,83.676 293.226,83.676 293.226,69.676" style="fill:none;stroke-width:0.050000mm;stroke:black"/>
<polygon points="298.276,69.676 298.276,83.676 312.276,83.676 312.276,69.676" style="fill:none;stroke-width:0.050000mm;stroke:black"/>
<polygon points="267.319,50.626 267.319,55.326 265.794,55.326 265.794,52.096 259.044,52.096 259.044,55.326 258.219,55.326 258.219,58.126 259.044,58.126 259.044,64.395 260.768,64.395 260.768,65.596 264.069,65.596 264.069,64.395 265.794,64.395 265.794,59.926 267.319,59.926 267.319,64.626 281.319,64.626 281.319,59.926 282.844,59.926 282.844,64.395 284.569,64.395 284.569,65.596 287.869,65.596 287.869,64.395 289.594,64.395 289.594,58.126 290.419,58.126 290.419,55.326 289.594,55.326 289.594,52.096 282.844,52.096 282.844,55.326 281.319,55.326 281.319,50.626" style="fill:none;stroke-width:0.050000mm;stroke:black"/>
<polygon points="19.669,50.626 19.669,64.626 33.669,64.626 33.669,50.626" style="fill:none;stroke-width:0.050000mm;stroke:black"/>
<polygon points="45.863,50.626 45.863,64.626 59.863,64.626 59.863,50.626" style="fill:none;stroke-width:0.050000mm;stroke:black"/>
<polygon points="64.913,50.626 64.913,64.626 78.913,64.626 78.913,50.626" style="fill:none;stroke-width:0.050000mm;stroke:black"/>
<polygon points="83.963,50.626 83.963,64.626 97.963,64.626 97.963,50.626" style="fill:none;stroke-width:0.050000mm;stroke:black"/>
<polygon points="103.013,50.626 103.013,64.626 117.013,64.626 117.013,50.626" style="fill:none;stroke-width:0.050000mm;stroke:black"/>
<polygon points="122.063,50.626 122.063,64.626 136.063,64.626 136.063,50.626" style="fill:none;stroke-width:0.050000mm;stroke:black"/>
<polygon points="141.113,50.626 141.113,64.626 155.113,64.626 155.113,50.626" style="fill:none;stroke-width:0.050000mm;stroke:black"/>
<polygon points="160.163,50.626 160.163,64.626 174.163,64.626 174.163,50.626" style="fill:none;stroke-width:0.050000mm;stroke:black"/>
<polygon points="179.213,50.626 179.213,64.626 193.213,64.626 193.213,50.626" style="fill:none;stroke-width:0.050000mm;stroke:black"/>
<polygon points="198.263,50.626 198.263,64.626 212.263,64.626 212.263,50.626" style="fill:none;stroke-width:0.050000mm;stroke:black"/>
<polygon points="217.313,50.626 217.313,64.626 231.313,64.626 231.313,50.626" style="fill:none;stroke-width:0.050000mm;stroke:black"/>
<polygon points="236.363,50.626 236.363,64.626 250.363,64.626 250.363,50.626" style="fill:none;stroke-width:0.050000mm;stroke:black"/>
<polygon points="298.276,50.626 298.276,64.626 312.276,64.626 312.276,50.626" style="fill:none;stroke-width:0.050000mm;stroke:black"/>
<polygon points="17.288,31.576 17.288,45.576 31.288,45.576 31.288,31.576" style="fill:none;stroke-width:0.050000mm;stroke:black"/>
<polygon points="41.101,31.576 41.101,45.576 55.101,45.576 55.101,31.576" style="fill:none;stroke-width:0.050000mm;stroke:black"/>
<polygon points="60.151,31.576 60.151,45.576 74.151,45.576 74.151,31.576" style="fill:none;stroke-width:0.050000mm;stroke:black"/>
<polygon points="79.201,31.576 79.201,45.576 93.201,45.576 93.201,31.576" style="fill:none;stroke-width:0.050000mm;stroke:black"/>
<polygon points="98.251,31.576 98.251,45.576 112.251,45.576 112.251,31.576" style="fill:none;stroke-width:0.050000mm;stroke:black"/>
<polygon points="117.301,31.576 117.301,45.576 131.301,45.576 131.301,31.576" style="fill:none;stroke-width:0.050000mm;stroke:black"/>
<polygon points="136.351,31.576 136.351,45.576 150.351,45.576 150.351,31.576" style="fill:none;stroke-width:0.050000mm;stroke:black"/>
<polygon points="155.401,31.576 155.401,45.576 169.401,45.576 169.401,31.576" style="fill:none;stroke-width:0.050000mm;stroke:black"/>
<polygon points="174.451,31.576 174.451,45.576 188.451,45.576 188.451,31.576" style="fill:none;stroke-width:0.050000mm;stroke:black"/>
<polygon points="193.501,31.576 193.501,45.576 207.501,45.576 207.501,31.576" style="fill:none;stroke-width:0.050000mm;stroke:black"/>
<polygon points="212.551,31.576 212.551,45.576 226.551,45.576 226.551,31.576" style="fill:none;stroke-width:0.050000mm;stroke:black"/>
<polygon points="231.601,31.576 231.601,45.576 245.601,45.576 245.601,31.576" style="fill:none;stroke-width:0.050000mm;stroke:black"/>
<polygon points="250.651,31.576 250.651,45.576 264.651,45.576 264.651,31.576" style="fill:none;stroke-width:0.050000mm;stroke:black"/>
<polygon points="274.463,31.576 274.463,45.576 288.463,45.576 288.463,31.576" style="fill:none;stroke-width:0.050000mm;stroke:black"/>
<polygon points="298.276,31.576 298.276,45.576 312.276,45.576 312.276,31.576" style="fill:none;stroke-width:0.050000mm;stroke:black"/>
<polygon points="269.701,12.525 269.701,17.225 268.176,17.225 268.176,13.995 261.426,13.995 261.426,17.225 260.601,17.225 260.601,20.026 261.426,20.026 261.426,26.295 263.151,26.295 263.151,27.495 266.451,27.495 266.451,26.295 268.176,26.295 268.176,21.826 269.701,21.826 269.701,26.526 283.701,26.526 283.701,21.826 285.226,21.826 285.226,26.295 286.951,26.295 286.951,27.495 290.251,27.495 290.251,26.295 291.976,26.295 291.976,20.026 292.801,20.026 292.801,17.225 291.976,17.225 291.976,13.995 285.226,13.995 285.226,17.225 283.701,17.225 283.701,12.525" style="fill:none;stroke-width:0.050000mm;stroke:black"/>
<polygon points="12.525,12.525 12.525,26.526 26.526,26.526 26.526,12.525" style="fill:none;stroke-width:0.050000mm;stroke:black"/>
<polygon points="31.576,12.525 31.576,26.526 45.576,26.526 45.576,12.525" style="fill:none;stroke-width:0.050000mm;stroke:black"/>
<polygon points="50.626,12.525 50.626,26.526 64.626,26.526 64.626,12.525" style="fill:none;stroke-width:0.050000mm;stroke:black"/>
<polygon points="69.676,12.525 69.676,26.526 83.676,26.526 83.676,12.525" style="fill:none;stroke-width:0.050000mm;stroke:black"/>
<polygon points="88.726,12.525 88.726,26.526 102.726,26.526 102.726,12.525" style="fill:none;stroke-width:0.050000mm;stroke:black"/>
<polygon points="107.775,12.525 107.775,26.526 121.775,26.526 121.775,12.525" style="fill:none;stroke-width:0.050000mm;stroke:black"/>
<polygon points="126.825,12.525 126.825,26.526 140.826,26.526 140.826,12.525" style="fill:none;stroke-width:0.050000mm;stroke:black"/>
<polygon points="145.876,12.525 145.876,26.526 159.876,26.526 159.876,12.525" style="fill:none;stroke-width:0.050000mm;stroke:black"/>
<polygon points="164.926,12.525 164.926,26.526 178.926,26.526 178.926,12.525" style="fill:none;stroke-width:0.050000mm;stroke:black"/>
<polygon points="183.976,12.525 183.976,26.526 197.976,26.526 197.976,12.525" style="fill:none;stroke-width:0.050000mm;stroke:black"/>
<polygon points="203.026,12.525 203.026,26.526 217.026,26.526 217.026,12.525" style="fill:none;stroke-width:0.050000mm;stroke:black"/>
<polygon points="222.076,12.525 222.076,26.526 236.076,26.526 236.076,12.525" style="fill:none;stroke-width:0.050000mm;stroke:black"/>
<polygon points="241.126,12.525 241.126,26.526 255.126,26.526 255.126,12.525" style="fill:none;stroke-width:0.050000mm;stroke:black"/>
<polygon points="298.276,12.525 298.276,26.526 312.276,26.526 312.276,12.525" style="fill:none;stroke-width:0.050000mm;stroke:black"/>
</svg>
